<svg version="1.1" id="Layer_1" xmlns="http://www.w3.org/2000/svg" xmlns:xlink="http://www.w3.org/1999/xlink" x="0px" y="0px"
	 width="100%" viewBox="0 0 1736 1744" enable-background="new 0 0 1736 1744" xml:space="preserve">
<path fill="#FFFFFF" opacity="1.000000" stroke="none" 
	d="
M908.000000,1.000000 
	C1184.317261,1.000000 1460.634521,1.000000 1736.975830,1.000000 
	C1736.975830,582.283386 1736.975830,1163.566772 1736.975830,1744.925049 
	C1158.416992,1744.925049 579.833984,1744.925049 1.125465,1744.925049 
	C1.125465,1163.784180 1.125465,582.568359 1.125465,1.000000 
	C278.032623,1.000000 555.065430,1.000000 832.541992,1.202545 
	C832.985840,1.405091 832.990540,1.810402 832.690002,1.889184 
	C831.903442,2.276029 831.417358,2.584092 830.468994,2.916912 
	C823.664551,3.592057 817.312744,4.870469 810.981995,4.773857 
	C792.746582,4.495577 774.754578,6.849347 756.742249,9.026388 
	C746.497742,10.264583 736.264404,11.712931 726.108154,13.526522 
	C717.945435,14.984120 709.945312,17.336113 701.798706,18.905249 
	C696.184448,19.986618 690.301575,19.843315 684.783813,21.225716 
	C663.609131,26.530804 642.377441,31.707413 621.466797,37.938202 
	C602.500061,43.589790 583.647461,49.850121 565.241882,57.104149 
	C540.168701,66.986023 515.405396,77.705658 490.829956,88.778038 
	C477.643799,94.719017 464.879578,101.721397 452.366821,109.004044 
	C431.270721,121.282372 410.155823,133.597000 389.721191,146.927048 
	C359.678131,166.524918 331.123932,188.216812 304.371887,212.166138 
	C288.364288,226.496704 272.174255,240.680649 256.978851,255.845016 
	C242.266144,270.527740 228.505768,286.190521 214.735107,301.783142 
	C204.304733,313.593567 193.842941,325.480865 184.587097,338.201294 
	C167.422623,361.790649 150.648575,385.698395 134.642624,410.084412 
	C123.973328,426.339752 114.270638,443.316406 105.272263,460.563385 
	C86.798721,495.971191 69.432655,531.958069 56.693504,569.907593 
	C47.685898,596.741028 38.683262,623.626587 31.207476,650.907898 
	C25.219212,672.760803 21.205667,695.181580 16.930513,717.468323 
	C13.778029,733.902405 11.004478,750.459167 9.175936,767.083862 
	C7.100336,785.954773 6.265673,804.962219 4.538683,824.161072 
	C4.084984,832.579163 3.984133,840.746460 3.525706,849.162476 
	C3.117531,850.740540 2.990176,852.072144 3.027762,853.398987 
	C3.666328,875.942383 4.209467,898.489441 5.027042,921.026489 
	C5.458566,932.921753 5.899036,944.851379 7.189050,956.672302 
	C9.021637,973.465210 11.231405,990.240967 14.028141,1006.898438 
	C17.460901,1027.344238 21.173349,1047.769165 25.648474,1068.007690 
	C32.725788,1100.014526 41.528004,1131.617920 53.211102,1162.248291 
	C63.564438,1189.392334 74.219780,1216.521851 86.695747,1242.727661 
	C99.581696,1269.794434 114.138687,1296.139526 129.258026,1322.045410 
	C140.790558,1341.805542 153.755981,1360.810669 167.163696,1379.371826 
	C180.179794,1397.390625 194.229233,1414.700806 208.461578,1431.792114 
	C221.209854,1447.101074 234.550415,1461.944702 248.153641,1476.504028 
	C257.304169,1486.297729 267.239349,1495.375977 277.057739,1504.522827 
	C286.816925,1513.614502 296.833282,1522.432007 306.808319,1531.289307 
	C311.486328,1535.442993 316.375122,1539.358398 321.090637,1543.471069 
	C326.142548,1547.877197 331.102936,1552.388184 336.102356,1557.208984 
	C336.498810,1560.968140 338.599060,1560.816895 341.027100,1559.961914 
	C341.004700,1559.989136 341.064178,1559.951538 341.033020,1560.374268 
	C340.579803,1567.261353 345.560669,1564.416870 348.614777,1565.213379 
	C348.755280,1565.292725 348.920074,1565.570190 348.670715,1565.923584 
	C347.967621,1570.663574 351.315125,1568.438110 353.404114,1569.083374 
	C368.099091,1579.247314 382.084503,1589.910522 396.939850,1599.179565 
	C420.117981,1613.641846 443.676819,1627.529907 467.480743,1640.939819 
	C482.280701,1649.277344 497.830322,1656.284180 513.023987,1664.255127 
	C514.090332,1665.815063 515.176208,1667.008057 516.262024,1668.200928 
	C518.093079,1669.177246 519.273132,1671.236328 520.887817,1671.667358 
	C523.437439,1672.348022 526.278748,1671.936157 529.123474,1672.268066 
	C530.918030,1673.764526 532.480225,1675.774170 534.277649,1676.012817 
	C537.153076,1676.394653 539.757935,1680.792969 543.399109,1676.958984 
	C545.835876,1678.000977 547.836609,1679.141235 549.962219,1679.955811 
	C552.050354,1680.756348 554.310364,1681.101074 556.416931,1681.861694 
	C566.618958,1685.545044 576.698059,1689.596680 587.001282,1692.965454 
	C604.729858,1698.762207 622.454529,1704.653198 640.435730,1709.572998 
	C660.143860,1714.965210 680.113464,1719.419800 700.027771,1724.029785 
	C706.201172,1725.459106 712.562805,1726.081787 718.843445,1727.039795 
	C738.565613,1730.048340 758.227417,1733.587036 778.033691,1735.868530 
	C794.222900,1737.733276 810.585693,1738.090576 826.925598,1739.301636 
	C826.979675,1739.487061 827.095825,1739.856201 827.341675,1740.191406 
	C828.056580,1740.668335 828.525513,1740.933472 828.994751,1740.934082 
	C855.843933,1740.972656 882.693176,1741.012573 909.542053,1740.929443 
	C910.703186,1740.925903 911.860840,1739.770874 913.481934,1739.085815 
	C918.609985,1739.000977 923.305176,1739.310913 927.936707,1738.901245 
	C940.852478,1737.758301 953.756531,1736.444824 966.637146,1734.955811 
	C978.228210,1733.615845 989.819397,1732.188477 1001.340393,1730.358398 
	C1010.304077,1728.934448 1019.140564,1726.727417 1028.068604,1725.055664 
	C1039.955444,1722.830078 1052.007568,1721.340332 1063.757568,1718.558594 
	C1095.556396,1711.030273 1127.112427,1702.505371 1157.708496,1690.924072 
	C1180.473389,1682.307007 1203.226074,1673.556519 1225.480835,1663.725708 
	C1243.595581,1655.723633 1261.273926,1646.588379 1278.585083,1636.948853 
	C1300.778320,1624.590942 1322.924805,1612.007935 1344.136353,1598.068359 
	C1364.708130,1584.549072 1384.663208,1569.923096 1403.811890,1554.449951 
	C1426.832153,1535.848511 1449.193726,1516.356934 1470.923950,1496.259644 
	C1485.877075,1482.430420 1499.440918,1467.072388 1513.302368,1452.098511 
	C1522.348145,1442.326904 1531.210449,1432.331055 1539.447998,1421.878296 
	C1551.869507,1406.116455 1563.810547,1389.968628 1575.708618,1373.802979 
	C1595.363403,1347.098877 1613.007690,1319.046875 1628.453125,1289.758179 
	C1642.231567,1263.630859 1655.573486,1237.165161 1667.139893,1210.010498 
	C1678.197021,1184.051270 1687.330933,1157.213257 1696.150757,1130.380249 
	C1702.748779,1110.307251 1708.146973,1089.776978 1712.900635,1069.178345 
	C1717.715698,1048.313599 1721.425415,1027.172363 1724.974854,1006.044006 
	C1727.799316,989.232056 1730.029907,972.296753 1731.817017,955.341736 
	C1733.202271,942.199707 1733.558105,928.945801 1734.249512,915.735291 
	C1734.662476,907.846313 1734.840088,899.945068 1735.454590,891.780762 
	C1735.878662,878.208923 1735.982544,864.905701 1736.026611,851.602234 
	C1736.028442,851.061584 1735.468872,850.519104 1735.116211,849.512939 
	C1733.719849,829.347229 1732.663452,809.621155 1730.954224,789.951782 
	C1729.331177,771.272461 1727.744751,752.539307 1724.832642,734.035889 
	C1721.379395,712.094666 1717.539429,690.114136 1712.032104,668.620789 
	C1704.516113,639.287354 1696.363159,610.017944 1686.447632,581.427063 
	C1676.918701,553.950745 1665.422729,527.095276 1653.597412,500.497711 
	C1645.393066,482.044220 1635.704712,464.183350 1625.701294,446.614563 
	C1614.195801,426.407745 1602.141235,406.466980 1589.369629,387.038666 
	C1571.331299,359.598267 1551.882812,333.128906 1529.996582,308.569855 
	C1514.292114,290.947510 1498.637207,273.265350 1482.410767,256.130219 
	C1473.203613,246.407761 1463.081543,237.516098 1453.027588,228.639908 
	C1438.981689,216.239487 1424.919189,203.822800 1410.303467,192.112274 
	C1394.005005,179.053391 1377.457642,166.235275 1360.342163,154.281219 
	C1330.293213,133.294098 1298.938965,114.301491 1266.200439,97.808998 
	C1244.140503,86.695969 1221.767090,76.068596 1198.952026,66.630432 
	C1176.783447,57.459682 1154.070923,49.468239 1131.228882,42.101574 
	C1111.034302,35.588783 1090.416626,30.315697 1069.827026,25.124649 
	C1054.377563,21.229513 1038.710938,18.159588 1023.073792,15.060747 
	C1014.468811,13.355463 1005.743652,12.210331 997.040100,11.058363 
	C981.063538,8.943761 965.099060,6.624986 949.061157,5.120469 
	C935.434998,3.842194 921.712524,3.590570 908.011963,2.700851 
	C907.991211,2.517009 907.909546,2.156133 907.941223,1.867809 
	C907.981934,1.386323 907.990967,1.193161 908.000000,1.000000 
z"/>
<path fill="#FFDFD8" opacity="1.000000" stroke="none" 
	d="
M907.531372,1.000000 
	C907.990967,1.193161 907.981934,1.386323 907.480713,1.824263 
	C882.322510,1.982828 857.656555,1.896615 832.990540,1.810402 
	C832.990540,1.810402 832.985840,1.405091 832.992920,1.202545 
	C857.687561,1.000000 882.375122,1.000000 907.531372,1.000000 
z"/>
<path fill="#E2010F" opacity="1.000000" stroke="none" 
	d="
M1735.123535,892.049316 
	C1734.840088,899.945068 1734.662476,907.846313 1734.249512,915.735291 
	C1733.558105,928.945801 1733.202271,942.199707 1731.817017,955.341736 
	C1730.029907,972.296753 1727.799316,989.232056 1724.974854,1006.044006 
	C1721.425415,1027.172363 1717.715698,1048.313599 1712.900635,1069.178345 
	C1708.146973,1089.776978 1702.748779,1110.307251 1696.150757,1130.380249 
	C1687.330933,1157.213257 1678.197021,1184.051270 1667.139893,1210.010498 
	C1655.573486,1237.165161 1642.231567,1263.630859 1628.453125,1289.758179 
	C1613.007690,1319.046875 1595.363403,1347.098877 1575.708618,1373.802979 
	C1563.810547,1389.968628 1551.869507,1406.116455 1539.447998,1421.878296 
	C1531.210449,1432.331055 1522.348145,1442.326904 1513.302368,1452.098511 
	C1499.440918,1467.072388 1485.877075,1482.430420 1470.923950,1496.259644 
	C1449.193726,1516.356934 1426.832153,1535.848511 1403.811890,1554.449951 
	C1384.663208,1569.923096 1364.708130,1584.549072 1344.136353,1598.068359 
	C1322.924805,1612.007935 1300.778320,1624.590942 1278.585083,1636.948853 
	C1261.273926,1646.588379 1243.595581,1655.723633 1225.480835,1663.725708 
	C1203.226074,1673.556519 1180.473389,1682.307007 1157.708496,1690.924072 
	C1127.112427,1702.505371 1095.556396,1711.030273 1063.757568,1718.558594 
	C1052.007568,1721.340332 1039.955444,1722.830078 1028.068604,1725.055664 
	C1019.140564,1726.727417 1010.304077,1728.934448 1001.340393,1730.358398 
	C989.819397,1732.188477 978.228210,1733.615845 966.637146,1734.955811 
	C953.756531,1736.444824 940.852478,1737.758301 927.936707,1738.901245 
	C923.305176,1739.310913 918.609985,1739.000977 913.158630,1739.014160 
	C911.933289,1739.045410 911.493164,1739.081787 910.587280,1739.056641 
	C882.371460,1739.035522 854.621521,1739.075928 826.871521,1739.116211 
	C810.585693,1738.090576 794.222900,1737.733276 778.033691,1735.868530 
	C758.227417,1733.587036 738.565613,1730.048340 718.843445,1727.039795 
	C712.562805,1726.081787 706.201172,1725.459106 700.027771,1724.029785 
	C680.113464,1719.419800 660.143860,1714.965210 640.435730,1709.572998 
	C622.454529,1704.653198 604.729858,1698.762207 587.001282,1692.965454 
	C576.698059,1689.596680 566.618958,1685.545044 556.416931,1681.861694 
	C554.310364,1681.101074 552.050354,1680.756348 549.962219,1679.955811 
	C547.836609,1679.141235 545.835876,1678.000977 543.250488,1676.627197 
	C538.160522,1674.468140 533.600525,1672.685059 528.868164,1670.583496 
	C523.478333,1668.139404 518.260925,1666.013672 513.043518,1663.888062 
	C497.830322,1656.284180 482.280701,1649.277344 467.480743,1640.939819 
	C443.676819,1627.529907 420.117981,1613.641846 396.939850,1599.179565 
	C382.084503,1589.910522 368.099091,1579.247314 353.278015,1568.788452 
	C351.528198,1567.435303 350.224121,1566.502808 348.920044,1565.570312 
	C348.920074,1565.570190 348.755280,1565.292725 348.428406,1564.959595 
	C345.755737,1563.068237 343.409943,1561.509888 341.064148,1559.951538 
	C341.064178,1559.951538 341.004700,1559.989136 340.920380,1559.635864 
	C339.258453,1558.472900 337.680817,1557.663208 336.103241,1556.853394 
	C331.102936,1552.388184 326.142548,1547.877197 321.090637,1543.471069 
	C316.375122,1539.358398 311.486328,1535.442993 306.808319,1531.289307 
	C296.833282,1522.432007 286.816925,1513.614502 277.057739,1504.522827 
	C267.239349,1495.375977 257.304169,1486.297729 248.153641,1476.504028 
	C234.550415,1461.944702 221.209854,1447.101074 208.461578,1431.792114 
	C194.229233,1414.700806 180.179794,1397.390625 167.163696,1379.371826 
	C153.755981,1360.810669 140.790558,1341.805542 129.258026,1322.045410 
	C114.138687,1296.139526 99.581696,1269.794434 86.695747,1242.727661 
	C74.219780,1216.521851 63.564438,1189.392334 53.211102,1162.248291 
	C41.528004,1131.617920 32.725788,1100.014526 25.648474,1068.007690 
	C21.173349,1047.769165 17.460901,1027.344238 14.028141,1006.898438 
	C11.231405,990.240967 9.021637,973.465210 7.189050,956.672302 
	C5.899036,944.851379 5.458566,932.921753 5.027042,921.026489 
	C4.209467,898.489441 3.666328,875.942383 3.027762,853.398987 
	C2.990176,852.072144 3.117531,850.740540 3.870844,848.927917 
	C4.679550,840.266541 4.785541,832.088379 4.891532,823.910278 
	C6.265673,804.962219 7.100336,785.954773 9.175936,767.083862 
	C11.004478,750.459167 13.778029,733.902405 16.930513,717.468323 
	C21.205667,695.181580 25.219212,672.760803 31.207476,650.907898 
	C38.683262,623.626587 47.685898,596.741028 56.693504,569.907593 
	C69.432655,531.958069 86.798721,495.971191 105.272263,460.563385 
	C114.270638,443.316406 123.973328,426.339752 134.642624,410.084412 
	C150.648575,385.698395 167.422623,361.790649 184.587097,338.201294 
	C193.842941,325.480865 204.304733,313.593567 214.735107,301.783142 
	C228.505768,286.190521 242.266144,270.527740 256.978851,255.845016 
	C272.174255,240.680649 288.364288,226.496704 304.371887,212.166138 
	C331.123932,188.216812 359.678131,166.524918 389.721191,146.927048 
	C410.155823,133.597000 431.270721,121.282372 452.366821,109.004044 
	C464.879578,101.721397 477.643799,94.719017 490.829956,88.778038 
	C515.405396,77.705658 540.168701,66.986023 565.241882,57.104149 
	C583.647461,49.850121 602.500061,43.589790 621.466797,37.938202 
	C642.377441,31.707413 663.609131,26.530804 684.783813,21.225716 
	C690.301575,19.843315 696.184448,19.986618 701.798706,18.905249 
	C709.945312,17.336113 717.945435,14.984120 726.108154,13.526522 
	C736.264404,11.712931 746.497742,10.264583 756.742249,9.026388 
	C774.754578,6.849347 792.746582,4.495577 810.981995,4.773857 
	C817.312744,4.870469 823.664551,3.592057 830.936523,2.978035 
	C857.255127,2.971165 882.643860,2.927930 908.032654,2.884694 
	C921.712524,3.590570 935.434998,3.842194 949.061157,5.120469 
	C965.099060,6.624986 981.063538,8.943761 997.040100,11.058363 
	C1005.743652,12.210331 1014.468811,13.355463 1023.073792,15.060747 
	C1038.710938,18.159588 1054.377563,21.229513 1069.827026,25.124649 
	C1090.416626,30.315697 1111.034302,35.588783 1131.228882,42.101574 
	C1154.070923,49.468239 1176.783447,57.459682 1198.952026,66.630432 
	C1221.767090,76.068596 1244.140503,86.695969 1266.200439,97.808998 
	C1298.938965,114.301491 1330.293213,133.294098 1360.342163,154.281219 
	C1377.457642,166.235275 1394.005005,179.053391 1410.303467,192.112274 
	C1424.919189,203.822800 1438.981689,216.239487 1453.027588,228.639908 
	C1463.081543,237.516098 1473.203613,246.407761 1482.410767,256.130219 
	C1498.637207,273.265350 1514.292114,290.947510 1529.996582,308.569855 
	C1551.882812,333.128906 1571.331299,359.598267 1589.369629,387.038666 
	C1602.141235,406.466980 1614.195801,426.407745 1625.701294,446.614563 
	C1635.704712,464.183350 1645.393066,482.044220 1653.597412,500.497711 
	C1665.422729,527.095276 1676.918701,553.950745 1686.447632,581.427063 
	C1696.363159,610.017944 1704.516113,639.287354 1712.032104,668.620789 
	C1717.539429,690.114136 1721.379395,712.094666 1724.832642,734.035889 
	C1727.744751,752.539307 1729.331177,771.272461 1730.954224,789.951782 
	C1732.663452,809.621155 1733.719849,829.347229 1735.054077,849.974426 
	C1735.072266,864.616638 1735.097900,878.333008 1735.123535,892.049316 
M1525.636475,1137.832764 
	C1526.084351,1136.161377 1526.532227,1134.490112 1527.010010,1132.074097 
	C1527.509521,1130.709229 1528.055176,1129.359375 1528.501831,1127.977417 
	C1537.002686,1101.682495 1546.346069,1075.622070 1553.757568,1049.023315 
	C1562.192017,1018.754211 1568.055176,987.844116 1571.001221,956.479187 
	C1572.448853,941.067444 1573.652588,925.632874 1575.028931,910.214233 
	C1575.186035,908.453979 1575.746948,906.729797 1576.653809,904.357605 
	C1576.764282,881.393372 1576.894165,858.429138 1576.909058,835.464844 
	C1576.909546,834.612427 1575.788940,833.759216 1575.024292,831.998108 
	C1574.362183,822.784363 1574.038208,813.531067 1572.966431,804.365295 
	C1570.867798,786.418701 1569.192261,768.360657 1565.811157,750.640747 
	C1560.811768,724.440247 1555.570312,698.191406 1548.449463,672.512878 
	C1538.419189,636.341980 1525.150635,601.201965 1508.976440,567.258606 
	C1493.983521,535.794678 1477.568848,505.082489 1457.687988,476.401184 
	C1446.098511,459.681274 1434.206177,443.112061 1421.473389,427.259521 
	C1407.281006,409.589966 1392.273438,392.544891 1377.047607,375.747406 
	C1368.599976,366.427795 1359.094116,358.048370 1349.861938,349.463867 
	C1339.833008,340.138458 1330.028809,330.482849 1319.301270,322.017181 
	C1301.875977,308.265930 1283.964478,295.107025 1265.919067,282.171051 
	C1241.845337,264.913574 1216.258667,250.036194 1189.888916,236.628296 
	C1172.801514,227.940033 1155.308716,219.959641 1137.623657,212.555115 
	C1104.768188,198.798935 1071.053101,187.417267 1036.228271,179.767303 
	C1014.418213,174.976288 992.495056,170.441299 970.414856,167.212585 
	C949.473267,164.150345 928.260864,162.939728 906.967041,160.467896 
	C906.967041,160.467896 906.771790,160.018646 907.093567,159.524948 
	C897.052612,159.396530 887.011597,159.268112 876.056152,159.064697 
	C872.379272,159.092133 868.702393,159.119583 864.290283,158.975601 
	C863.537048,159.014557 862.783875,159.053513 861.096863,159.001816 
	C856.950134,159.004837 852.800110,158.905411 848.657410,159.036667 
	C843.423096,159.202545 838.194641,159.556366 832.378479,160.016251 
	C831.873596,160.321014 831.368713,160.625778 829.946655,160.958359 
	C824.187195,161.324234 818.431824,161.902802 812.667480,162.012405 
	C800.057129,162.252121 787.604858,163.509094 775.197021,165.916153 
	C756.439209,169.555069 737.507690,172.310806 718.776489,176.071976 
	C689.420349,181.966644 660.838257,190.601700 632.607666,200.638702 
	C600.192627,212.163376 568.903931,226.096313 538.544128,242.166641 
	C511.619293,256.418701 485.715637,272.397675 461.167603,290.431122 
	C445.610016,301.859985 430.416870,313.826233 415.554535,326.147736 
	C402.744629,336.767700 390.423340,348.006805 378.288788,359.401093 
	C370.313843,366.889587 362.888641,374.989105 355.514404,383.085663 
	C345.221405,394.386841 334.956451,405.731232 325.127014,417.433044 
	C308.229645,437.549194 292.880951,458.794891 278.508850,480.829010 
	C259.015350,510.714966 241.496704,541.631958 227.073822,574.241455 
	C219.248016,591.935181 211.787704,609.829712 205.098633,627.978638 
	C192.915085,661.035461 183.201157,694.845215 176.811142,729.540405 
	C174.411758,742.568054 172.151489,755.624146 170.057343,768.704041 
	C168.551224,778.111206 167.269073,787.561157 166.172211,797.025085 
	C164.964371,807.446594 164.020065,817.900452 163.098526,828.352356 
	C162.832626,831.368286 162.977463,834.427307 163.041794,837.464355 
	C163.667923,867.025024 164.016006,896.596008 165.072403,926.141602 
	C165.705750,943.854919 167.291275,961.528442 170.922226,978.973511 
	C172.758057,987.793701 173.051224,996.960571 175.201599,1005.684814 
	C182.097458,1033.661987 188.437119,1061.851318 197.085938,1089.298828 
	C204.979095,1114.348511 214.663712,1138.952759 225.294891,1162.985352 
	C235.022308,1184.974976 244.734238,1207.114624 258.078857,1227.372070 
	C267.471527,1241.630371 275.614227,1256.738892 285.418060,1270.692871 
	C298.099701,1288.742676 311.580017,1306.258423 325.286835,1323.552124 
	C335.271271,1336.149292 345.642212,1348.532104 356.789124,1360.096313 
	C378.263306,1382.374756 400.246399,1404.196167 424.787598,1423.186279 
	C440.410187,1435.275146 455.717804,1447.895264 472.170685,1458.756226 
	C493.692871,1472.963501 515.820801,1486.369141 538.408875,1498.811157 
	C558.316711,1509.776611 578.821960,1519.884277 599.784485,1528.645264 
	C621.304626,1537.639648 643.554993,1544.984497 665.757324,1552.217896 
	C682.825134,1557.778198 700.260071,1562.251953 717.637146,1566.807007 
	C727.065063,1569.278320 736.683655,1571.066284 746.270874,1572.872192 
	C754.629761,1574.446533 763.056641,1575.671753 771.470459,1576.938599 
	C776.583374,1577.708252 781.722595,1578.314697 786.860413,1578.904297 
	C793.199646,1579.631836 799.539001,1580.397705 805.897461,1580.908813 
	C815.581909,1581.687378 825.275757,1582.664551 834.978210,1582.833862 
	C852.301147,1583.136353 869.633606,1582.898926 887.893311,1583.004883 
	C894.956299,1582.993164 902.021790,1583.074341 909.080078,1582.887085 
	C910.404907,1582.852173 911.701294,1581.745850 913.940430,1581.018799 
	C922.262512,1580.351807 930.573914,1579.383545 938.909180,1579.087158 
	C952.056580,1578.619629 964.946289,1576.772095 977.819519,1574.054932 
	C997.270569,1569.949463 1017.108704,1567.476929 1036.334961,1562.560547 
	C1059.253296,1556.700317 1081.937378,1549.674805 1104.277710,1541.878784 
	C1123.716431,1535.095581 1142.722046,1526.959229 1161.567993,1518.626709 
	C1175.841553,1512.315674 1189.796387,1505.178955 1203.468384,1497.639404 
	C1219.413086,1488.846680 1235.401001,1479.962158 1250.455200,1469.766479 
	C1270.814453,1455.978027 1290.691650,1441.399048 1310.042358,1426.224121 
	C1325.572632,1414.045288 1340.510376,1400.997925 1354.795410,1387.375732 
	C1369.273438,1373.569458 1382.873169,1358.809326 1396.393433,1344.042236 
	C1406.371582,1333.143799 1416.176147,1321.991821 1425.035889,1310.185791 
	C1438.347046,1292.448120 1451.443726,1274.473267 1463.369995,1255.793823 
	C1475.365112,1237.006104 1486.194702,1217.437622 1496.821655,1197.824707 
	C1504.755737,1183.181885 1511.554688,1167.923828 1519.549438,1152.859863 
	C1521.310303,1149.383423 1523.229858,1145.974243 1524.748047,1142.394897 
	C1525.297607,1141.099487 1524.886230,1139.396606 1524.957153,1137.962769 
	C1524.957153,1137.962769 1524.866455,1137.937988 1525.636475,1137.832764 
z"/>
<path fill="#FFDBE2" opacity="1.000000" stroke="none" 
	d="
M911.053040,1739.118164 
	C911.493164,1739.081787 911.933289,1739.045410 912.696777,1739.080566 
	C911.860840,1739.770874 910.703186,1740.925903 909.542053,1740.929443 
	C882.693176,1741.012573 855.843933,1740.972656 828.994751,1740.934082 
	C828.525513,1740.933472 828.056580,1740.668335 827.802307,1740.220947 
	C854.463257,1739.949585 880.909363,1739.996338 907.355469,1739.980347 
	C908.588196,1739.979614 909.820496,1739.418335 911.053040,1739.118164 
z"/>
<path fill="#95252C" opacity="1.000000" stroke="none" 
	d="
M910.587280,1739.056641 
	C909.820496,1739.418335 908.588196,1739.979614 907.355469,1739.980347 
	C880.909363,1739.996338 854.463257,1739.949585 827.556519,1739.885620 
	C827.095825,1739.856201 826.979675,1739.487061 826.925598,1739.301758 
	C854.621521,1739.075928 882.371460,1739.035522 910.587280,1739.056641 
z"/>
<path fill="#8D261F" opacity="1.000000" stroke="none" 
	d="
M908.011963,2.700851 
	C882.643860,2.927930 857.255127,2.971165 831.398804,2.953278 
	C831.417358,2.584092 831.903442,2.276029 832.690002,1.889184 
	C857.656555,1.896615 882.322510,1.982828 907.449036,2.112587 
	C907.909546,2.156133 907.991211,2.517009 908.011963,2.700851 
z"/>
<path fill="#F4EFE7" opacity="1.000000" stroke="none" 
	d="
M513.023987,1664.255127 
	C518.260925,1666.013672 523.478333,1668.139404 528.856079,1670.854614 
	C529.009827,1671.625000 529.003235,1671.805908 528.996643,1671.986694 
	C526.278748,1671.936157 523.437439,1672.348022 520.887817,1671.667358 
	C519.273132,1671.236328 518.093079,1669.177246 516.262024,1668.200928 
	C515.176208,1667.008057 514.090332,1665.815063 513.023987,1664.255127 
z"/>
<path fill="#A01B21" opacity="1.000000" stroke="none" 
	d="
M1735.454590,891.780762 
	C1735.097900,878.333008 1735.072266,864.616638 1735.108765,850.438843 
	C1735.468872,850.519104 1736.028442,851.061584 1736.026611,851.602234 
	C1735.982544,864.905701 1735.878662,878.208923 1735.454590,891.780762 
z"/>
<path fill="#F5EDE1" opacity="1.000000" stroke="none" 
	d="
M529.123474,1672.268066 
	C529.003235,1671.805908 529.009827,1671.625000 529.028442,1671.173096 
	C533.600525,1672.685059 538.160522,1674.468140 542.869202,1676.583008 
	C539.757935,1680.792969 537.153076,1676.394653 534.277649,1676.012817 
	C532.480225,1675.774170 530.918030,1673.764526 529.123474,1672.268066 
z"/>
<path fill="#AA1726" opacity="1.000000" stroke="none" 
	d="
M4.538683,824.161072 
	C4.785541,832.088379 4.679550,840.266541 4.228421,848.679199 
	C3.984133,840.746460 4.084984,832.579163 4.538683,824.161072 
z"/>
<path fill="#F9E8E2" opacity="1.000000" stroke="none" 
	d="
M341.033020,1560.374268 
	C343.409943,1561.509888 345.755737,1563.068237 348.287903,1564.880249 
	C345.560669,1564.416870 340.579803,1567.261353 341.033020,1560.374268 
z"/>
<path fill="#F9E8E2" opacity="1.000000" stroke="none" 
	d="
M336.102356,1557.208984 
	C337.680817,1557.663208 339.258453,1558.472900 340.942780,1559.608643 
	C338.599060,1560.816895 336.498810,1560.968140 336.102356,1557.208984 
z"/>
<path fill="#F9E8E2" opacity="1.000000" stroke="none" 
	d="
M348.670715,1565.923584 
	C350.224121,1566.502808 351.528198,1567.435303 352.958405,1568.662720 
	C351.315125,1568.438110 347.967621,1570.663574 348.670715,1565.923584 
z"/>
<path fill="#FFFFFF" opacity="1.000000" stroke="none" 
	d="
M907.167542,160.914856 
	C928.260864,162.939728 949.473267,164.150345 970.414856,167.212585 
	C992.495056,170.441299 1014.418213,174.976288 1036.228271,179.767303 
	C1071.053101,187.417267 1104.768188,198.798935 1137.623657,212.555115 
	C1155.308716,219.959641 1172.801514,227.940033 1189.888916,236.628296 
	C1216.258667,250.036194 1241.845337,264.913574 1265.919067,282.171051 
	C1283.964478,295.107025 1301.875977,308.265930 1319.301270,322.017181 
	C1330.028809,330.482849 1339.833008,340.138458 1349.861938,349.463867 
	C1359.094116,358.048370 1368.599976,366.427795 1377.047607,375.747406 
	C1392.273438,392.544891 1407.281006,409.589966 1421.473389,427.259521 
	C1434.206177,443.112061 1446.098511,459.681274 1457.687988,476.401184 
	C1477.568848,505.082489 1493.983521,535.794678 1508.976440,567.258606 
	C1525.150635,601.201965 1538.419189,636.341980 1548.449463,672.512878 
	C1555.570312,698.191406 1560.811768,724.440247 1565.811157,750.640747 
	C1569.192261,768.360657 1570.867798,786.418701 1572.966431,804.365295 
	C1574.038208,813.531067 1574.362183,822.784363 1575.137939,832.878906 
	C1575.477783,835.698730 1575.891479,837.636780 1575.901123,839.576721 
	C1576.010254,861.380615 1576.057129,883.184814 1576.120605,904.988892 
	C1575.746948,906.729797 1575.186035,908.453979 1575.028931,910.214233 
	C1573.652588,925.632874 1572.448853,941.067444 1571.001221,956.479187 
	C1568.055176,987.844116 1562.192017,1018.754211 1553.757568,1049.023315 
	C1546.346069,1075.622070 1537.002686,1101.682495 1528.501831,1127.977417 
	C1528.055176,1129.359375 1527.509521,1130.709229 1526.661621,1132.606934 
	C1525.830933,1134.739258 1525.348755,1136.338623 1524.866455,1137.937988 
	C1524.866455,1137.937988 1524.957153,1137.962769 1524.595215,1138.087158 
	C1522.441772,1143.120850 1520.650391,1148.030396 1518.859009,1152.939819 
	C1511.554688,1167.923828 1504.755737,1183.181885 1496.821655,1197.824707 
	C1486.194702,1217.437622 1475.365112,1237.006104 1463.369995,1255.793823 
	C1451.443726,1274.473267 1438.347046,1292.448120 1425.035889,1310.185791 
	C1416.176147,1321.991821 1406.371582,1333.143799 1396.393433,1344.042236 
	C1382.873169,1358.809326 1369.273438,1373.569458 1354.795410,1387.375732 
	C1340.510376,1400.997925 1325.572632,1414.045288 1310.042358,1426.224121 
	C1290.691650,1441.399048 1270.814453,1455.978027 1250.455200,1469.766479 
	C1235.401001,1479.962158 1219.413086,1488.846680 1203.468384,1497.639404 
	C1189.796387,1505.178955 1175.841553,1512.315674 1161.567993,1518.626709 
	C1142.722046,1526.959229 1123.716431,1535.095581 1104.277710,1541.878784 
	C1081.937378,1549.674805 1059.253296,1556.700317 1036.334961,1562.560547 
	C1017.108704,1567.476929 997.270569,1569.949463 977.819519,1574.054932 
	C964.946289,1576.772095 952.056580,1578.619629 938.909180,1579.087158 
	C930.573914,1579.383545 922.262512,1580.351807 913.056580,1580.991943 
	C906.783447,1581.279907 901.390625,1581.544434 896.006348,1581.929688 
	C892.984253,1582.145996 889.976379,1582.561523 886.962036,1582.887207 
	C869.633606,1582.898926 852.301147,1583.136353 834.978210,1582.833862 
	C825.275757,1582.664551 815.581909,1581.687378 805.897461,1580.908813 
	C799.539001,1580.397705 793.199646,1579.631836 786.860413,1578.904297 
	C781.722595,1578.314697 776.583374,1577.708252 771.470459,1576.938599 
	C763.056641,1575.671753 754.629761,1574.446533 746.270874,1572.872192 
	C736.683655,1571.066284 727.065063,1569.278320 717.637146,1566.807007 
	C700.260071,1562.251953 682.825134,1557.778198 665.757324,1552.217896 
	C643.554993,1544.984497 621.304626,1537.639648 599.784485,1528.645264 
	C578.821960,1519.884277 558.316711,1509.776611 538.408875,1498.811157 
	C515.820801,1486.369141 493.692871,1472.963501 472.170685,1458.756226 
	C455.717804,1447.895264 440.410187,1435.275146 424.787598,1423.186279 
	C400.246399,1404.196167 378.263306,1382.374756 356.789124,1360.096313 
	C345.642212,1348.532104 335.271271,1336.149292 325.286835,1323.552124 
	C311.580017,1306.258423 298.099701,1288.742676 285.418060,1270.692871 
	C275.614227,1256.738892 267.471527,1241.630371 258.078857,1227.372070 
	C244.734238,1207.114624 235.022308,1184.974976 225.294891,1162.985352 
	C214.663712,1138.952759 204.979095,1114.348511 197.085938,1089.298828 
	C188.437119,1061.851318 182.097458,1033.661987 175.201599,1005.684814 
	C173.051224,996.960571 172.758057,987.793701 170.922226,978.973511 
	C167.291275,961.528442 165.705750,943.854919 165.072403,926.141602 
	C164.016006,896.596008 163.667923,867.025024 163.041794,837.464355 
	C162.977463,834.427307 162.832626,831.368286 163.098526,828.352356 
	C164.020065,817.900452 164.964371,807.446594 166.172211,797.025085 
	C167.269073,787.561157 168.551224,778.111206 170.057343,768.704041 
	C172.151489,755.624146 174.411758,742.568054 176.811142,729.540405 
	C183.201157,694.845215 192.915085,661.035461 205.098633,627.978638 
	C211.787704,609.829712 219.248016,591.935181 227.073822,574.241455 
	C241.496704,541.631958 259.015350,510.714966 278.508850,480.829010 
	C292.880951,458.794891 308.229645,437.549194 325.127014,417.433044 
	C334.956451,405.731232 345.221405,394.386841 355.514404,383.085663 
	C362.888641,374.989105 370.313843,366.889587 378.288788,359.401093 
	C390.423340,348.006805 402.744629,336.767700 415.554535,326.147736 
	C430.416870,313.826233 445.610016,301.859985 461.167603,290.431122 
	C485.715637,272.397675 511.619293,256.418701 538.544128,242.166641 
	C568.903931,226.096313 600.192627,212.163376 632.607666,200.638702 
	C660.838257,190.601700 689.420349,181.966644 718.776489,176.071976 
	C737.507690,172.310806 756.439209,169.555069 775.197021,165.916153 
	C787.604858,163.509094 800.057129,162.252121 812.667480,162.012405 
	C818.431824,161.902802 824.187195,161.324234 830.881226,160.990997 
	C841.397339,161.013657 850.980286,161.082932 860.559021,160.911392 
	C862.057922,160.884552 863.537170,159.762604 865.025513,159.147034 
	C868.702393,159.119583 872.379272,159.092133 876.532959,159.278564 
	C877.009766,159.492416 877.085205,159.840729 877.332581,160.174805 
	C886.395081,160.419495 895.210205,160.330109 904.350891,160.183777 
	C905.106934,160.195496 905.537476,160.264114 906.103271,160.536682 
	C906.238586,160.740631 906.679688,160.952362 906.679688,160.952362 
	C906.679688,160.952362 907.167542,160.914856 907.167542,160.914856 
M897.422119,1161.066528 
	C897.422119,1161.066528 897.011353,1161.210571 896.142334,1161.031860 
	C888.330017,1159.437988 880.298828,1158.530518 872.746399,1156.121826 
	C849.941467,1148.848999 832.230957,1134.889648 819.657532,1114.342529 
	C807.568787,1094.587280 801.215759,1073.070679 801.128601,1050.128540 
	C800.807129,965.494446 801.005188,880.858459 801.007935,796.223145 
	C801.007935,794.606445 801.007935,792.989746 801.007935,790.991150 
	C803.419739,790.991150 805.378601,790.991211 807.337402,790.991211 
	C953.449890,790.991211 1099.562378,790.992493 1245.674805,790.981873 
	C1248.499512,790.981689 1251.324097,790.841614 1254.705078,790.919495 
	C1255.091431,790.926575 1255.477661,790.933655 1256.617432,790.875671 
	C1258.787109,788.743347 1259.050903,786.746887 1256.066284,784.046997 
	C1256.060425,719.356873 1256.050659,654.666687 1256.055664,589.976562 
	C1256.056030,584.326111 1256.153809,578.675720 1256.760132,572.929749 
	C1256.577515,572.277649 1256.394775,571.625549 1256.071045,570.235718 
	C1256.114380,569.489685 1256.157593,568.743713 1256.500000,567.757568 
	C1256.306519,567.519287 1256.113037,567.281006 1255.303345,566.983521 
	C1254.903076,567.051819 1254.502930,567.120117 1253.163818,567.031250 
	C1252.330811,567.011780 1251.497681,566.975159 1250.664673,566.975220 
	C1102.873657,566.980835 955.082703,566.989014 807.291748,566.997070 
	C805.337463,566.997192 803.383179,566.997070 800.821533,566.997070 
	C800.821533,487.099945 800.821533,407.630310 800.821533,328.285492 
	C646.416992,482.685333 492.259491,636.838196 338.009277,791.083740 
	C410.694824,791.083740 483.716553,791.083740 557.168518,791.083740 
	C557.168518,794.738770 557.168518,797.879761 557.001160,801.941528 
	C556.993896,879.542786 556.952515,957.144043 557.023682,1034.745239 
	C557.032288,1044.187134 557.627441,1053.629150 558.018372,1063.068481 
	C558.047546,1063.771851 558.623840,1064.452759 558.960510,1066.046509 
	C559.992432,1076.710083 560.039062,1087.584839 562.267883,1097.992065 
	C566.490417,1117.708740 571.442139,1137.308472 577.044861,1156.681030 
	C584.915771,1183.896606 597.892700,1208.885986 613.171570,1232.609741 
	C628.522400,1256.445435 646.354675,1278.314453 668.180847,1296.597168 
	C679.842834,1306.365601 691.546509,1316.200684 704.047180,1324.823120 
	C721.328857,1336.742920 739.881042,1346.516357 759.271790,1354.806519 
	C791.859741,1368.738892 825.803650,1377.578857 860.817932,1381.819580 
	C879.982727,1384.140869 899.438477,1384.137451 918.773438,1384.924194 
	C923.867004,1385.131348 928.999084,1384.369385 934.114502,1384.070312 
	C940.542053,1383.694580 947.046875,1383.837402 953.383728,1382.872437 
	C968.751038,1380.532593 984.080078,1377.889526 999.352295,1374.988403 
	C1025.360107,1370.047974 1050.017334,1360.894653 1073.789307,1349.501831 
	C1100.705200,1336.602539 1125.343018,1320.033569 1147.395386,1299.927490 
	C1162.775757,1285.904663 1176.723022,1270.469971 1189.022949,1253.574707 
	C1204.798706,1231.905151 1217.913330,1208.726318 1227.897949,1183.920166 
	C1237.692993,1159.585205 1245.055542,1134.486572 1249.310791,1108.482422 
	C1252.374512,1089.760254 1255.083130,1071.057739 1255.785156,1051.512939 
	C1255.870972,1049.858154 1256.031128,1048.203247 1256.031982,1046.548462 
	C1256.051147,1010.556274 1256.052612,974.564087 1256.057251,938.571899 
	C1256.057739,935.277527 1256.057251,931.983093 1256.057251,927.703796 
	C1254.590088,929.192505 1253.760864,930.033875 1252.292725,931.184265 
	C1248.715576,934.436340 1245.021240,937.569336 1241.580078,940.959351 
	C1214.611206,967.527405 1187.653076,994.106873 1160.780518,1020.772339 
	C1153.611084,1027.886353 1146.749023,1035.310181 1139.699829,1042.639648 
	C1138.165771,1041.433960 1137.477661,1040.991699 1136.906860,1040.430176 
	C1117.609497,1021.444580 1098.296265,1002.475098 1079.043213,983.444702 
	C1060.715332,965.328552 1042.452026,947.147034 1023.723267,928.296631 
	C1023.129028,929.803711 1022.022400,931.308777 1022.016663,932.818115 
	C1021.912415,960.258118 1021.917175,987.698608 1021.950195,1015.139038 
	C1021.966980,1029.102173 1022.085266,1043.065186 1021.991394,1056.975830 
	C1021.991394,1056.975830 1021.817078,1056.967651 1021.359985,1057.409302 
	C1021.283203,1058.022583 1021.206421,1058.635986 1021.100830,1060.113403 
	C1019.940125,1077.986206 1014.666382,1094.676514 1005.945190,1110.199951 
	C989.028198,1140.311768 962.711487,1156.458496 928.167725,1160.996216 
	C927.157227,1161.016357 926.146729,1161.036621 924.180969,1161.006958 
	C915.406372,1161.030273 906.631836,1161.053467 897.422119,1161.066528 
z"/>
<path fill="#AA1726" opacity="1.000000" stroke="none" 
	d="
M1576.387207,904.673218 
	C1576.057129,883.184814 1576.010254,861.380615 1575.901123,839.576721 
	C1575.891479,837.636780 1575.477783,835.698730 1575.221191,833.333130 
	C1575.788940,833.759216 1576.909546,834.612427 1576.909058,835.464844 
	C1576.894165,858.429138 1576.764282,881.393372 1576.387207,904.673218 
z"/>
<path fill="#FFDFD8" opacity="1.000000" stroke="none" 
	d="
M864.657898,159.061325 
	C863.537170,159.762604 862.057922,160.884552 860.559021,160.911392 
	C850.980286,161.082932 841.397339,161.013657 831.339844,160.977081 
	C831.368713,160.625778 831.873596,160.321014 833.138977,159.999512 
	C839.397644,159.986755 844.898804,160.103119 850.392944,159.956528 
	C854.277100,159.852890 858.151733,159.393204 862.030640,159.092468 
	C862.783875,159.053513 863.537048,159.014557 864.657898,159.061325 
z"/>
<path fill="#932321" opacity="1.000000" stroke="none" 
	d="
M877.085205,159.840729 
	C877.085205,159.840729 877.009766,159.492416 876.990234,159.316055 
	C887.011597,159.268112 897.052612,159.396530 906.721802,159.823547 
	C906.350037,160.122147 905.967957,160.332748 905.967957,160.332733 
	C905.537476,160.264114 905.106934,160.195496 903.888550,160.086090 
	C894.428772,159.977112 885.757019,159.908920 877.085205,159.840729 
z"/>
<path fill="#B61324" opacity="1.000000" stroke="none" 
	d="
M1519.204224,1152.899902 
	C1520.650391,1148.030396 1522.441772,1143.120850 1524.573242,1138.045532 
	C1524.886230,1139.396606 1525.297607,1141.099487 1524.748047,1142.394897 
	C1523.229858,1145.974243 1521.310303,1149.383423 1519.204224,1152.899902 
z"/>
<path fill="#8E2620" opacity="1.000000" stroke="none" 
	d="
M861.563721,159.047134 
	C858.151733,159.393204 854.277100,159.852890 850.392944,159.956528 
	C844.898804,160.103119 839.397644,159.986755 833.431580,159.905945 
	C838.194641,159.556366 843.423096,159.202545 848.657410,159.036667 
	C852.800110,158.905411 856.950134,159.004837 861.563721,159.047134 
z"/>
<path fill="#982528" opacity="1.000000" stroke="none" 
	d="
M887.427673,1582.946045 
	C889.976379,1582.561523 892.984253,1582.145996 896.006348,1581.929688 
	C901.390625,1581.544434 906.783447,1581.279907 912.591736,1581.049438 
	C911.701294,1581.745850 910.404907,1582.852173 909.080078,1582.887085 
	C902.021790,1583.074341 894.956299,1582.993164 887.427673,1582.946045 
z"/>
<path fill="#B61324" opacity="1.000000" stroke="none" 
	d="
M1525.251465,1137.885376 
	C1525.348755,1136.338623 1525.830933,1134.739258 1526.646606,1132.979248 
	C1526.532227,1134.490112 1526.084351,1136.161377 1525.251465,1137.885376 
z"/>
<path fill="#FFDAD8" opacity="1.000000" stroke="none" 
	d="
M906.103271,160.536682 
	C905.967957,160.332748 906.350037,160.122147 906.560913,160.070404 
	C906.771790,160.018646 906.967041,160.467896 907.067261,160.691376 
	C907.167542,160.914856 906.679688,160.952362 906.679688,160.952362 
	C906.679688,160.952362 906.238586,160.740631 906.103271,160.536682 
z"/>
<path fill="#E3000F" opacity="1.000000" stroke="none" 
	d="
M557.168518,801.020752 
	C557.168518,797.879761 557.168518,794.738770 557.168518,791.083740 
	C483.716553,791.083740 410.694824,791.083740 338.009277,791.083740 
	C492.259491,636.838196 646.416992,482.685333 800.821533,328.285492 
	C800.821533,407.630310 800.821533,487.099945 800.821533,566.997070 
	C803.383179,566.997070 805.337463,566.997192 807.291748,566.997070 
	C955.082703,566.989014 1102.873657,566.980835 1250.664673,566.975220 
	C1251.497681,566.975159 1252.330811,567.011780 1253.608154,567.490662 
	C1254.370361,573.011719 1254.959839,578.072998 1254.964966,583.135010 
	C1255.028564,644.901123 1255.035278,706.667358 1254.968506,768.433411 
	C1254.960449,775.878174 1254.434692,783.322388 1254.148804,790.766846 
	C1251.324097,790.841614 1248.499512,790.981689 1245.674805,790.981873 
	C1099.562378,790.992493 953.449890,790.991211 807.337402,790.991211 
	C805.378601,790.991211 803.419739,790.991150 801.007935,790.991150 
	C801.007935,792.989746 801.007935,794.606445 801.007935,796.223145 
	C801.005188,880.858459 800.807129,965.494446 801.128601,1050.128540 
	C801.215759,1073.070679 807.568787,1094.587280 819.657532,1114.342529 
	C832.230957,1134.889648 849.941467,1148.848999 872.746399,1156.121826 
	C880.298828,1158.530518 888.330017,1159.437988 896.668213,1161.510010 
	C897.719849,1162.313477 898.244141,1162.919312 898.771667,1162.921997 
	C907.995483,1162.969604 917.220337,1162.988647 926.442749,1162.856323 
	C927.270996,1162.844604 928.083740,1161.750122 928.903687,1161.158691 
	C962.711487,1156.458496 989.028198,1140.311768 1005.945190,1110.199951 
	C1014.666382,1094.676514 1019.940125,1077.986206 1021.371338,1059.479492 
	C1021.700256,1058.219727 1021.758667,1057.593628 1021.817139,1056.967651 
	C1021.817078,1056.967651 1021.991394,1056.975830 1022.343750,1056.683960 
	C1022.798279,1054.573853 1022.988647,1052.755493 1022.989441,1050.937256 
	C1023.006531,1012.146851 1022.986389,973.356445 1023.051636,934.566101 
	C1023.054749,932.708252 1023.774414,930.851562 1024.160278,928.994263 
	C1042.452026,947.147034 1060.715332,965.328552 1079.043213,983.444702 
	C1098.296265,1002.475098 1117.609497,1021.444580 1136.906860,1040.430176 
	C1137.477661,1040.991699 1138.165771,1041.433960 1139.699829,1042.639648 
	C1146.749023,1035.310181 1153.611084,1027.886353 1160.780518,1020.772339 
	C1187.653076,994.106873 1214.611206,967.527405 1241.580078,940.959351 
	C1245.021240,937.569336 1248.715576,934.436340 1253.008545,931.148682 
	C1254.157837,933.270325 1254.963501,935.426575 1254.969604,937.585022 
	C1255.078613,975.739868 1255.090210,1013.894958 1255.122803,1052.050049 
	C1255.083130,1071.057739 1252.374512,1089.760254 1249.310791,1108.482422 
	C1245.055542,1134.486572 1237.692993,1159.585205 1227.897949,1183.920166 
	C1217.913330,1208.726318 1204.798706,1231.905151 1189.022949,1253.574707 
	C1176.723022,1270.469971 1162.775757,1285.904663 1147.395386,1299.927490 
	C1125.343018,1320.033569 1100.705200,1336.602539 1073.789307,1349.501831 
	C1050.017334,1360.894653 1025.360107,1370.047974 999.352295,1374.988403 
	C984.080078,1377.889526 968.751038,1380.532593 953.383728,1382.872437 
	C947.046875,1383.837402 940.542053,1383.694580 934.114502,1384.070312 
	C928.999084,1384.369385 923.867004,1385.131348 918.773438,1384.924194 
	C899.438477,1384.137451 879.982727,1384.140869 860.817932,1381.819580 
	C825.803650,1377.578857 791.859741,1368.738892 759.271790,1354.806519 
	C739.881042,1346.516357 721.328857,1336.742920 704.047180,1324.823120 
	C691.546509,1316.200684 679.842834,1306.365601 668.180847,1296.597168 
	C646.354675,1278.314453 628.522400,1256.445435 613.171570,1232.609741 
	C597.892700,1208.885986 584.915771,1183.896606 577.044861,1156.681030 
	C571.442139,1137.308472 566.490417,1117.708740 562.267883,1097.992065 
	C560.039062,1087.584839 559.992432,1076.710083 558.980591,1065.138184 
	C559.266907,1060.114014 559.895630,1055.982300 559.714111,1051.886475 
	C559.443848,1045.789062 558.089783,1039.717773 558.080200,1033.633911 
	C557.961304,958.018433 558.008606,882.402649 557.967529,806.786987 
	C557.966492,804.864807 557.446472,802.942810 557.168518,801.020752 
z"/>
<path fill="#D10825" opacity="1.000000" stroke="none" 
	d="
M557.084839,801.481140 
	C557.446472,802.942810 557.966492,804.864807 557.967529,806.786987 
	C558.008606,882.402649 557.961304,958.018433 558.080200,1033.633911 
	C558.089783,1039.717773 559.443848,1045.789062 559.714111,1051.886475 
	C559.895630,1055.982300 559.266907,1060.114014 558.973267,1064.686890 
	C558.623840,1064.452759 558.047546,1063.771851 558.018372,1063.068481 
	C557.627441,1053.629150 557.032288,1044.187134 557.023682,1034.745239 
	C556.952515,957.144043 556.993896,879.542786 557.084839,801.481140 
z"/>
<path fill="#A21A20" opacity="1.000000" stroke="none" 
	d="
M1254.427002,790.843140 
	C1254.434692,783.322388 1254.960449,775.878174 1254.968506,768.433411 
	C1255.035278,706.667358 1255.028564,644.901123 1254.964966,583.135010 
	C1254.959839,578.072998 1254.370361,573.011719 1254.077515,567.569214 
	C1254.502930,567.120117 1254.903076,567.051819 1255.648438,567.261597 
	C1256.062744,567.692322 1256.131836,567.845032 1256.200928,567.997681 
	C1256.157593,568.743713 1256.114380,569.489685 1256.059692,570.943115 
	C1256.100952,572.108765 1256.153687,572.567017 1256.206299,573.025269 
	C1256.153809,578.675720 1256.056030,584.326111 1256.055664,589.976562 
	C1256.050659,654.666687 1256.060425,719.356873 1256.043701,784.929199 
	C1255.968750,787.521240 1255.916382,789.230957 1255.864014,790.940735 
	C1255.477661,790.933655 1255.091431,790.926575 1254.427002,790.843140 
z"/>
<path fill="#A61D20" opacity="1.000000" stroke="none" 
	d="
M1023.941772,928.645447 
	C1023.774414,930.851562 1023.054749,932.708252 1023.051636,934.566101 
	C1022.986389,973.356445 1023.006531,1012.146851 1022.989441,1050.937256 
	C1022.988647,1052.755493 1022.798279,1054.573853 1022.426880,1056.710205 
	C1022.085266,1043.065186 1021.966980,1029.102173 1021.950195,1015.139038 
	C1021.917175,987.698608 1021.912415,960.258118 1022.016663,932.818115 
	C1022.022400,931.308777 1023.129028,929.803711 1023.941772,928.645447 
z"/>
<path fill="#A01B21" opacity="1.000000" stroke="none" 
	d="
M1255.453857,1051.781494 
	C1255.090210,1013.894958 1255.078613,975.739868 1254.969604,937.585022 
	C1254.963501,935.426575 1254.157837,933.270325 1253.327881,930.994202 
	C1253.760864,930.033875 1254.590088,929.192505 1256.057251,927.703796 
	C1256.057251,931.983093 1256.057739,935.277527 1256.057251,938.571899 
	C1256.052612,974.564087 1256.051147,1010.556274 1256.031982,1046.548462 
	C1256.031128,1048.203247 1255.870972,1049.858154 1255.453857,1051.781494 
z"/>
<path fill="#A51C25" opacity="1.000000" stroke="none" 
	d="
M928.535767,1161.077393 
	C928.083740,1161.750122 927.270996,1162.844604 926.442749,1162.856323 
	C917.220337,1162.988647 907.995483,1162.969604 898.771667,1162.921997 
	C898.244141,1162.919312 897.719849,1162.313477 897.102661,1161.599365 
	C897.011353,1161.210571 897.422119,1161.066528 897.899292,1161.425781 
	C903.802246,1161.854614 909.230652,1162.052490 914.653076,1161.947754 
	C918.151917,1161.880371 921.642151,1161.369019 925.136230,1161.056885 
	C926.146729,1161.036621 927.157227,1161.016357 928.535767,1161.077393 
z"/>
<path fill="#FFD4DB" opacity="1.000000" stroke="none" 
	d="
M924.658569,1161.031860 
	C921.642151,1161.369019 918.151917,1161.880371 914.653076,1161.947754 
	C909.230652,1162.052490 903.802246,1161.854614 898.116821,1161.430908 
	C906.631836,1161.053467 915.406372,1161.030273 924.658569,1161.031860 
z"/>
<path fill="#FFDAD8" opacity="1.000000" stroke="none" 
	d="
M877.332581,160.174805 
	C885.757019,159.908920 894.428772,159.977112 903.562988,160.143005 
	C895.210205,160.330109 886.395081,160.419495 877.332581,160.174805 
z"/>
<path fill="#FFEBE6" opacity="1.000000" stroke="none" 
	d="
M1256.240723,790.908203 
	C1255.916382,789.230957 1255.968750,787.521240 1256.108887,785.392029 
	C1259.050903,786.746887 1258.787109,788.743347 1256.240723,790.908203 
z"/>
<path fill="#FFEBE6" opacity="1.000000" stroke="none" 
	d="
M1256.483276,572.977539 
	C1256.153687,572.567017 1256.100952,572.108765 1256.130127,571.312012 
	C1256.394775,571.625549 1256.577515,572.277649 1256.483276,572.977539 
z"/>
<path fill="#FFE5E4" opacity="1.000000" stroke="none" 
	d="
M1021.588562,1057.188477 
	C1021.758667,1057.593628 1021.700256,1058.219727 1021.385742,1059.047485 
	C1021.206421,1058.635986 1021.283203,1058.022583 1021.588562,1057.188477 
z"/>
<path fill="#FFEBE6" opacity="1.000000" stroke="none" 
	d="
M1256.350464,567.877625 
	C1256.131836,567.845032 1256.062744,567.692322 1255.956543,567.291199 
	C1256.113037,567.281006 1256.306519,567.519287 1256.350464,567.877625 
z"/>
</svg>